<svg xmlns="http://www.w3.org/2000/svg"><symbol id="mecha-stilts" viewBox="0 0 192 192"><path d="M72.2 118.2h15.6v9.86H72.2zm18.8 0h10v9.86H91zm13.1 0h15.6v9.86h-15.6zM96 53c-18.3 0-33.6 11.1-34.4 31.3h68.8C129.6 64.1 114.3 53 96 53zm-36.9 65.2h10v9.86h-10zm-9.4-3.1h92.6V87.4H49.7zm45.5-10.7h38.2a1.6 1.6 0 0 1 0 3.2H95.2a1.6 1.6 0 0 1 0-3.2z"/><path d="M96 .7L13.5 48.4v95.2L96 191.3l82.5-47.7V48.4zm49.4 115.9a1.4 1.4 0 0 1-1.5 1.6h-7.8v9.9h7.8a1.6 1.6 0 0 1 1.5 1.5 1.6 1.6 0 0 1-1.5 1.6H48.1a1.6 1.6 0 0 1-1.5-1.6 1.6 1.6 0 0 1 1.5-1.5h7.8v-9.9h-7.8a1.4 1.4 0 0 1-1.5-1.6V85.8a1.4 1.4 0 0 1 1.5-1.5h10.3C59.2 62 75.8 49.8 96 49.8s36.8 12.2 37.5 34.5h10.4a1.4 1.4 0 0 1 1.5 1.5z"/><path d="M122.9 118.2h10v9.86h-10z"/></symbol><symbol id="space-bubbles" viewBox="0 0 192 192"><path d="M73.2 112.3H62.8l-13.7 16.2 2.2 3.2 26.4-14-4.5-5.4zM54.1 101h85.6v8.14H54.1zm74.8-3.1a39.4 39.4 0 0 0 1.8-11.9A33.9 33.9 0 0 0 63 86c0 4.1.3 8.3 1.9 11.9zM65 128.1h21.3l-6.4-7.9-14.9 7.9zm53.8-15.8l-4.7 5.4 26.6 14 2.2-3-13.7-16.4h-10.4z"/><path d="M96 .7L13.5 48.4v95.2L96 191.3l82.5-47.7V48.4zm50.1 128.8l-3.6 5.1a1.7 1.7 0 0 1-2.1.5l-7.5-3.9h-74l-7.5 3.9a1.6 1.6 0 0 1-2-.5l-3.6-5.1a1.8 1.8 0 0 1 .1-1.9l13-15.3h-6.4a1.6 1.6 0 0 1-1.6-1.6V99.4a1.5 1.5 0 0 1 1.6-1.5h9.1A43.9 43.9 0 0 1 59.9 86a37 37 0 1 1 72.2 11.9h9.1a1.4 1.4 0 0 1 1.6 1.5v11.3a1.5 1.5 0 0 1-1.6 1.6h-8l12.9 15.3a1.8 1.8 0 0 1 0 1.9z"/><path d="M105.7 128.1H127l-14.9-7.9-6.4 7.9zm-28.5-15.8l13.2 15.8h11.2l13.2-15.8H77.2z"/></symbol><symbol id="super-domes" viewBox="0 0 192 192"><path d="M52.3 110.7h42.1v17.37H52.3zm42.1-14.9V64.2L71.9 95.8h22.5zM97.6 61v34.8h43.1A46.2 46.2 0 0 0 97.6 61zm0 49.7h7v17.37h-7zm-4.7-49.6a46.3 46.3 0 0 0-41.6 34.7H68z"/><path d="M96 .7L13.5 48.4v95.2L96 191.3l82.5-47.7V48.4zm67.4 110h-20.6v18.9a1.5 1.5 0 0 1-1.6 1.6H50.8a1.5 1.5 0 0 1-1.6-1.6v-18.9H28.6a1.6 1.6 0 1 1 0-3.1h11.7V97.4a1.5 1.5 0 0 1 1.6-1.6H48a49.6 49.6 0 0 1 47.8-38h.7a49.4 49.4 0 0 1 47.5 38h6.1a1.5 1.5 0 0 1 1.6 1.6v10.2h11.7a1.6 1.6 0 1 1 0 3.1z"/><path d="M43.4 99h105.1v8.6H43.4zm64.3 11.7h31.9v17.37h-31.9z"/></symbol></svg>